<svg width="557" height="79" viewBox="0 0 557 79" fill="none" xmlns="http://www.w3.org/2000/svg">
<path d="M123.831 55.0474V65.305V65.9267C123.831 66.6281 123.784 67.3056 123.688 67.9591C123.608 68.5967 123.353 69.2184 122.923 69.8241C122.381 70.6052 121.711 71.195 120.914 71.5935C120.133 71.9761 119.288 72.1674 118.38 72.1674C117.758 72.1674 117.168 72.0638 116.61 71.8565C116.069 71.6493 115.566 71.3704 115.104 71.0197C114.658 70.653 114.267 70.2306 113.933 69.7524C113.598 69.2583 113.343 68.7322 113.167 68.1743L116.3 67.1222C116.427 67.5845 116.666 67.9671 117.017 68.27C117.384 68.5728 117.806 68.7243 118.284 68.7243C118.842 68.7243 119.273 68.5409 119.575 68.1743C119.894 67.7917 120.093 67.3614 120.173 66.8831C120.173 66.8194 120.173 66.5962 120.173 66.2136C120.189 65.8311 120.197 65.3608 120.197 64.8029C120.197 64.2291 120.197 63.5915 120.197 62.8901C120.197 62.1728 120.197 61.4554 120.197 60.7381C120.197 59.0484 120.189 57.1515 120.173 55.0474H123.831ZM138.394 60.1404V72H135.549L135.214 70.7327C134.752 71.3544 134.194 71.7689 133.54 71.9761C132.903 72.1833 132.233 72.2869 131.532 72.2869C130.687 72.2869 129.906 72.1275 129.189 71.8087C128.487 71.474 127.873 71.0276 127.347 70.4697C126.821 69.8959 126.407 69.2343 126.104 68.4851C125.817 67.72 125.674 66.907 125.674 66.0463C125.674 65.1855 125.817 64.3805 126.104 63.6313C126.407 62.8662 126.821 62.2046 127.347 61.6467C127.873 61.0729 128.487 60.6265 129.189 60.3077C129.906 59.973 130.687 59.8056 131.532 59.8056C132.297 59.8056 132.998 59.9252 133.636 60.1643C134.274 60.4034 134.8 60.7859 135.214 61.312L135.549 60.1404H138.394ZM135.094 66.0941C135.094 65.4724 135.007 64.9544 134.831 64.5399C134.672 64.1095 134.449 63.7668 134.162 63.5117C133.891 63.2408 133.564 63.0495 133.182 62.9379C132.815 62.8104 132.416 62.7466 131.986 62.7466C131.556 62.7466 131.149 62.8343 130.767 63.0096C130.4 63.185 130.073 63.4241 129.786 63.7269C129.499 64.0139 129.276 64.3646 129.117 64.779C128.957 65.1775 128.878 65.5999 128.878 66.0463C128.878 66.5085 128.957 66.9389 129.117 67.3374C129.276 67.7359 129.499 68.0866 129.786 68.3895C130.073 68.6764 130.4 68.9076 130.767 69.0829C131.149 69.2583 131.556 69.3459 131.986 69.3459C132.847 69.3459 133.572 69.0829 134.162 68.5569C134.768 68.0149 135.079 67.194 135.094 66.0941ZM148.97 60.1404H152.533L147.751 72H143.495L138.712 60.1404H142.251L145.623 68.9155L148.97 60.1404ZM165.994 60.1404V72H163.149L162.814 70.7327C162.352 71.3544 161.794 71.7689 161.14 71.9761C160.503 72.1833 159.833 72.2869 159.132 72.2869C158.287 72.2869 157.506 72.1275 156.788 71.8087C156.087 71.474 155.473 71.0276 154.947 70.4697C154.421 69.8959 154.007 69.2343 153.704 68.4851C153.417 67.72 153.274 66.907 153.274 66.0463C153.274 65.1855 153.417 64.3805 153.704 63.6313C154.007 62.8662 154.421 62.2046 154.947 61.6467C155.473 61.0729 156.087 60.6265 156.788 60.3077C157.506 59.973 158.287 59.8056 159.132 59.8056C159.897 59.8056 160.598 59.9252 161.236 60.1643C161.873 60.4034 162.399 60.7859 162.814 61.312L163.149 60.1404H165.994ZM162.694 66.0941C162.694 65.4724 162.607 64.9544 162.431 64.5399C162.272 64.1095 162.049 63.7668 161.762 63.5117C161.491 63.2408 161.164 63.0495 160.782 62.9379C160.415 62.8104 160.016 62.7466 159.586 62.7466C159.156 62.7466 158.749 62.8343 158.367 63.0096C158 63.185 157.673 63.4241 157.386 63.7269C157.099 64.0139 156.876 64.3646 156.717 64.779C156.557 65.1775 156.478 65.5999 156.478 66.0463C156.478 66.5085 156.557 66.9389 156.717 67.3374C156.876 67.7359 157.099 68.0866 157.386 68.3895C157.673 68.6764 158 68.9076 158.367 69.0829C158.749 69.2583 159.156 69.3459 159.586 69.3459C160.447 69.3459 161.172 69.0829 161.762 68.5569C162.368 68.0149 162.678 67.194 162.694 66.0941ZM175.663 65.7833C176.54 66.4049 176.979 67.2896 176.979 68.4373C176.979 68.9634 176.851 69.4575 176.596 69.9198C176.357 70.3821 176.022 70.7885 175.592 71.1392C175.161 71.4899 174.659 71.7689 174.085 71.9761C173.511 72.1674 172.898 72.263 172.244 72.263C171.75 72.263 171.264 72.1993 170.786 72.0717C170.323 71.9442 169.893 71.7689 169.494 71.5457C169.096 71.3225 168.745 71.0595 168.442 70.7567C168.156 70.4378 167.94 70.0872 167.797 69.7046C168.163 69.5292 168.57 69.338 169.016 69.1307C169.463 68.9076 169.853 68.7083 170.188 68.533C170.331 68.7721 170.555 68.9952 170.857 69.2025C171.16 69.3937 171.575 69.4894 172.101 69.4894C172.643 69.4894 173.041 69.3619 173.296 69.1068C173.551 68.8518 173.679 68.6127 173.679 68.3895C173.679 68.2301 173.591 68.0866 173.416 67.9591C173.24 67.8157 173.041 67.7041 172.818 67.6244C172.499 67.4968 172.236 67.4331 172.029 67.4331C171.822 67.4171 171.583 67.3693 171.312 67.2896C170.451 67.0824 169.789 66.8114 169.327 66.4767C168.881 66.126 168.554 65.7753 168.347 65.4246C168.14 65.0739 168.02 64.7392 167.988 64.4204C167.972 64.1015 167.964 63.8465 167.964 63.6552C167.964 63.1451 168.076 62.6589 168.299 62.1967C168.522 61.7344 168.825 61.3359 169.208 61.0011C169.606 60.6505 170.06 60.3715 170.57 60.1643C171.097 59.957 171.654 59.8534 172.244 59.8534C172.738 59.8534 173.209 59.9252 173.655 60.0686C174.101 60.2121 174.508 60.4113 174.874 60.6664C175.241 60.9214 175.552 61.2243 175.807 61.575C176.078 61.9257 176.277 62.3162 176.405 62.7466L173.846 63.6074C173.751 63.3205 173.551 63.0893 173.248 62.914C172.962 62.7386 172.651 62.651 172.316 62.651C171.981 62.651 171.71 62.7626 171.503 62.9857C171.296 63.2089 171.192 63.432 171.192 63.6552C171.192 63.9262 171.288 64.1414 171.479 64.3008C171.686 64.4443 171.909 64.5479 172.149 64.6116C172.324 64.6435 172.491 64.6754 172.651 64.7073C172.826 64.7232 172.993 64.7471 173.153 64.779C173.711 64.9065 174.189 65.05 174.587 65.2094C175.002 65.3688 175.361 65.5601 175.663 65.7833ZM184.567 62.7466C184.168 62.7466 183.794 62.8423 183.443 63.0335C183.092 63.2089 182.781 63.456 182.51 63.7748C182.255 64.0776 182.048 64.4363 181.889 64.8507C181.745 65.2652 181.674 65.7115 181.674 66.1897C181.674 66.6679 181.745 67.1063 181.889 67.5048C182.048 67.8874 182.255 68.2221 182.51 68.5091C182.781 68.78 183.092 68.9952 183.443 69.1546C183.794 69.314 184.168 69.3937 184.567 69.3937C185.061 69.3937 185.539 69.2822 186.001 69.059C186.48 68.8199 186.886 68.4931 187.221 68.0787L189.253 70.0872C188.695 70.7567 188.01 71.2907 187.197 71.6892C186.384 72.0877 185.507 72.2869 184.567 72.2869C183.706 72.2869 182.901 72.1275 182.152 71.8087C181.403 71.474 180.749 71.0276 180.191 70.4697C179.633 69.8959 179.187 69.2343 178.852 68.4851C178.533 67.72 178.374 66.907 178.374 66.0463C178.374 65.1855 178.533 64.3805 178.852 63.6313C179.187 62.8662 179.633 62.2046 180.191 61.6467C180.749 61.0729 181.403 60.6265 182.152 60.3077C182.901 59.973 183.706 59.8056 184.567 59.8056C185.539 59.8056 186.44 60.0128 187.269 60.4273C188.098 60.8417 188.799 61.4076 189.373 62.1249L187.077 63.8943C186.615 63.4639 186.193 63.169 185.81 63.0096C185.443 62.8343 185.029 62.7466 184.567 62.7466ZM194.29 61.7902C194.449 61.5351 194.633 61.296 194.84 61.0729C195.047 60.8338 195.294 60.6265 195.581 60.4512C195.868 60.2599 196.195 60.1085 196.561 59.9969C196.928 59.8853 197.343 59.8295 197.805 59.8295C198.347 59.8295 198.976 59.9252 199.694 60.1165L199.383 63.0574C199.208 63.0256 199.032 62.9857 198.857 62.9379C198.713 62.906 198.554 62.8821 198.379 62.8662C198.203 62.8343 198.044 62.8183 197.9 62.8183C197.39 62.8183 196.912 62.8901 196.466 63.0335C196.035 63.177 195.661 63.3763 195.342 63.6313C195.023 63.8863 194.768 64.1972 194.577 64.5638C194.386 64.9145 194.29 65.2971 194.29 65.7115V72H190.99V60.1404H193.979L194.29 61.7902ZM204.478 72H201.179V60.1404H204.478V72ZM202.829 58.5144C202.319 58.5144 201.888 58.3391 201.537 57.9884C201.187 57.6377 201.011 57.2073 201.011 56.6972C201.011 56.1871 201.187 55.7568 201.537 55.4061C201.888 55.0394 202.319 54.8561 202.829 54.8561C203.339 54.8561 203.769 55.0394 204.12 55.4061C204.47 55.7568 204.646 56.1871 204.646 56.6972C204.646 57.2073 204.47 57.6377 204.12 57.9884C203.769 58.3391 203.339 58.5144 202.829 58.5144ZM213.802 59.8056C214.647 59.8056 215.428 59.973 216.145 60.3077C216.862 60.6265 217.476 61.0729 217.986 61.6467C218.512 62.2046 218.919 62.8662 219.206 63.6313C219.509 64.3805 219.66 65.1855 219.66 66.0463C219.66 66.907 219.509 67.72 219.206 68.4851C218.919 69.2343 218.512 69.8959 217.986 70.4697C217.476 71.0276 216.862 71.474 216.145 71.8087C215.428 72.1275 214.647 72.2869 213.802 72.2869C213.116 72.2869 212.447 72.1674 211.793 71.9283C211.14 71.6732 210.63 71.3544 210.263 70.9718V76.7343H206.963V60.1404H209.785L210.263 60.9533C210.725 60.5389 211.243 60.244 211.817 60.0686C212.391 59.8933 213.053 59.8056 213.802 59.8056ZM213.371 69.3459C213.802 69.3459 214.2 69.2583 214.567 69.0829C214.95 68.9076 215.276 68.6764 215.547 68.3895C215.834 68.0866 216.057 67.7359 216.217 67.3374C216.392 66.9389 216.48 66.5085 216.48 66.0463C216.48 65.5999 216.392 65.1775 216.217 64.779C216.057 64.3646 215.834 64.0139 215.547 63.7269C215.276 63.4241 214.95 63.185 214.567 63.0096C214.2 62.8343 213.802 62.7466 213.371 62.7466C212.941 62.7466 212.535 62.8104 212.152 62.9379C211.785 63.0495 211.459 63.2408 211.172 63.5117C210.901 63.7668 210.686 64.1095 210.526 64.5399C210.367 64.9544 210.287 65.4565 210.287 66.0463C210.287 66.6042 210.367 67.0904 210.526 67.5048C210.686 67.9033 210.901 68.246 211.172 68.533C211.459 68.804 211.785 69.0112 212.152 69.1546C212.535 69.2822 212.941 69.3459 213.371 69.3459ZM225.442 67.7439C225.442 68.3018 225.609 68.7322 225.944 69.0351C226.295 69.338 226.749 69.4894 227.307 69.4894C227.753 69.4894 228.2 69.4017 228.646 69.2264V72C228.248 72.1275 227.825 72.2311 227.379 72.3108C226.932 72.4065 226.486 72.4543 226.04 72.4543C225.53 72.4543 225.044 72.3905 224.581 72.263C224.119 72.1355 223.705 71.9203 223.338 71.6174C222.971 71.2986 222.676 70.8842 222.453 70.3741C222.246 69.848 222.142 69.2025 222.142 68.4373V63.0814H220.445V60.8577L222.142 60.1404V57.4863H225.442V60.1404H228.646V63.0814H225.442V67.7439Z" fill="#407BFF"/>
<path d="M196 25C196 28.2571 195.378 31.3684 194.244 34.2225C193.638 35.749 192.886 37.2021 192.004 38.5633C190.906 40.2612 189.607 41.8174 188.142 43.197C187.284 44.0062 186.369 44.7541 185.404 45.4357C181.333 48.3112 176.364 50 171 50C165.636 50 160.667 48.3112 156.596 45.4357C155.388 44.5827 154.259 43.6266 153.223 42.5775C148.757 38.0622 146 31.8521 146 25C146 18.1479 148.757 11.9378 153.223 7.42246C154.32 6.3123 155.521 5.30508 156.81 4.41533C160.841 1.63057 165.73 0 171 0C176.27 0 181.159 1.63057 185.19 4.41533C186.175 5.09395 187.107 5.84287 187.982 6.6541C189.513 8.07041 190.866 9.67754 192.004 11.4367C192.886 12.7979 193.638 14.251 194.244 15.7775C195.378 18.6316 196 21.7429 196 25Z" fill="#E4BA42"/>
<path d="M184.188 22.751C183.493 20.733 180.64 20.733 180.083 22.403C179.526 24.073 181.405 25.0472 184.328 26.0215C187.25 26.9957 189.06 29.5704 188.712 31.8666C188.364 34.1628 187.389 37.1551 181.614 37.1551C178.004 37.1551 175.998 34.8989 175.001 33.2069L178.274 31.2403C178.274 31.2403 179.387 33.6063 181.475 33.6063C183.562 33.6063 184.397 32.9105 184.397 31.31C184.397 29.3616 177.647 28.6658 176.604 25.3257C175.56 21.9855 176.952 17.2538 181.823 17.6017C184.867 17.8191 186.579 19.3141 187.436 20.4047L184.188 22.751Z" fill="#F2F2F2"/>
<path d="M169.019 17.9497C169.019 17.9497 169.019 29.7096 169.019 31.3101C169.019 32.9104 167.627 33.7456 166.236 33.4672C164.844 33.1889 164.218 31.5188 164.218 31.5188L161.017 33.676C161.017 33.676 161.713 36.8768 166.096 37.1553C170.48 37.4336 172.985 34.7894 172.985 32.5626C172.985 30.3358 172.985 17.9497 172.985 17.9497H169.019Z" fill="#F2F2F2"/>
<path d="M153.223 4.41533V42.5775C154.259 43.6266 155.388 44.5826 156.596 45.4357H185.404C186.369 44.7541 187.284 44.0061 188.142 43.197H155.462V6.6541H192.004V38.5633C192.886 37.202 193.638 35.749 194.244 34.2225V4.41533H153.223Z" fill="#F2F2F2"/>
<path d="M154.58 37.0857C156.77 37.0857 158.546 35.31 158.546 33.1194C158.546 30.9289 156.77 29.1531 154.58 29.1531C152.389 29.1531 150.613 30.9289 150.613 33.1194C150.613 35.31 152.389 37.0857 154.58 37.0857Z" fill="#3F4A43"/>
<path d="M288.505 55.0474H292.14V72H288.505V64.7073H280.734V72H277.124V55.0474H280.734V61.4076H288.505V55.0474ZM293.806 55.0474H306.072V58.3471H301.744V72H298.134V58.3471H293.806V55.0474ZM322.584 55.0474H326.004V72H322.393V60.8099L318.352 66.4767H315.459L311.37 60.9772V72H307.736V55.0474H311.179L316.918 62.8662L322.584 55.0474ZM331.895 68.7243H338.853V72H328.261V55.0474H331.895V68.7243ZM348.895 61.5272C349.708 62.0373 350.322 62.7307 350.737 63.6074C351.151 64.4841 351.358 65.4166 351.358 66.4049C351.358 67.2179 351.199 67.983 350.88 68.7003C350.577 69.4017 350.163 70.0234 349.637 70.5654C349.111 71.1073 348.489 71.5377 347.772 71.8565C347.07 72.1594 346.313 72.3108 345.5 72.3108C344.863 72.3108 344.249 72.2072 343.659 72C343.085 71.8087 342.559 71.5377 342.081 71.187C341.603 70.8364 341.18 70.4219 340.814 69.9437C340.447 69.4495 340.168 68.9155 339.977 68.3417L343.109 67.0027C343.237 67.5606 343.508 68.0388 343.922 68.4373C344.352 68.8199 344.847 69.0112 345.405 69.0112C345.723 69.0112 346.026 68.9474 346.313 68.8199C346.6 68.6764 346.847 68.4931 347.054 68.27C347.278 68.0308 347.445 67.7599 347.556 67.457C347.684 67.1382 347.748 66.8114 347.748 66.4767C347.748 65.7115 347.509 65.0898 347.03 64.6116C346.552 64.1334 345.986 63.8943 345.333 63.8943C344.95 63.8943 344.568 63.9661 344.185 64.1095C343.803 64.253 343.428 64.4363 343.061 64.6595L340.814 63.0096L341.674 55.0474H349.995V58.3471H344.592L344.352 61.2163C344.655 61.0888 344.958 60.9932 345.261 60.9294C345.58 60.8656 345.899 60.8338 346.217 60.8338C346.744 60.8338 347.238 60.9055 347.7 61.049C348.178 61.1765 348.577 61.3359 348.895 61.5272Z" fill="#407BFF"/>
<path d="M292.812 0L295.794 43.7599L314.019 50L332.244 43.7599L335.225 0H292.812Z" fill="#FF7816"/>
<path d="M335.225 0L332.244 43.7599L314.019 50V0H335.225Z" fill="#FF4B00"/>
<path d="M327.266 13.2812H306.425L306.931 20.6055H326.76L325.55 38.3396L314.019 42.3534L302.487 38.3396L302.094 32.4219H307.719L307.831 34.0332L314.019 36.1717L320.206 34.0332L320.712 26.4648H301.672L300.378 7.42188H327.659L327.266 13.2812Z" fill="#ECECF1"/>
<path d="M326.76 20.6055L325.55 38.3396L314.019 42.3534V36.1717L320.206 34.0332L320.712 26.4648H314.019V20.6055H326.76Z" fill="#E2E2E7"/>
<path d="M327.659 7.42188L327.266 13.2812H314.019V7.42188H327.659Z" fill="#E2E2E7"/>
<path d="M13.3182 60.0925C13.3182 60.6345 13.2385 61.1526 13.0791 61.6467C12.9356 62.1249 12.7284 62.5713 12.4574 62.9857C12.1864 63.3842 11.8596 63.7429 11.4771 64.0617C11.0945 64.3646 10.6801 64.6116 10.2337 64.8029L15.8527 72H11.6205L6.38412 65.1616H4.7582V72H1.1238V55.0474H8.44043C9.10992 55.0474 9.73957 55.1829 10.3294 55.4539C10.9351 55.7089 11.4532 56.0676 11.8835 56.5299C12.3299 56.9762 12.6806 57.5102 12.9356 58.1319C13.1907 58.7376 13.3182 59.3912 13.3182 60.0925ZM7.98613 61.8619C8.4484 61.8619 8.84691 61.6945 9.18166 61.3598C9.5164 61.0091 9.68378 60.5867 9.68378 60.0925C9.68378 59.6143 9.5164 59.2078 9.18166 58.8731C8.84691 58.5224 8.4484 58.3471 7.98613 58.3471H4.7582V61.8619H7.98613ZM23.3492 59.8056C24.2419 59.8056 25.0548 59.9889 25.7881 60.3556C26.5214 60.7062 27.151 61.1765 27.677 61.7663C28.2031 62.3401 28.6095 63.0096 28.8965 63.7748C29.1834 64.524 29.3269 65.2971 29.3269 66.0941C29.3269 66.5723 29.2631 67.0824 29.1356 67.6244H20.6712C20.99 68.1663 21.4443 68.6286 22.0341 69.0112C22.6239 69.3778 23.2616 69.5611 23.947 69.5611C24.6324 69.5611 25.2302 69.5053 25.7403 69.3937C26.2663 69.2822 26.7605 69.1387 27.2227 68.9634L28.3226 70.9958C27.7328 71.4102 27.0554 71.729 26.2902 71.9522C25.541 72.1753 24.736 72.2869 23.8753 72.2869C22.9348 72.2869 22.0581 72.1275 21.2451 71.8087C20.4321 71.474 19.7228 71.0276 19.1171 70.4697C18.5113 69.9118 18.0331 69.2503 17.6824 68.4851C17.3317 67.72 17.1564 66.907 17.1564 66.0463C17.1564 65.2014 17.3158 64.4044 17.6346 63.6552C17.9534 62.8901 18.3918 62.2285 18.9497 61.6706C19.5235 61.0968 20.1851 60.6425 20.9343 60.3077C21.6835 59.973 22.4884 59.8056 23.3492 59.8056ZM26.0511 65.0659C25.8598 64.3805 25.5171 63.8226 25.023 63.3922C24.5288 62.9618 23.9709 62.7466 23.3492 62.7466C22.7116 62.7466 22.1298 62.9618 21.6038 63.3922C21.0937 63.8226 20.743 64.3805 20.5517 65.0659H26.0511ZM44.121 60.1404V72H41.2756L40.9409 70.7327C40.4786 71.3544 39.9207 71.7689 39.2671 71.9761C38.6295 72.1833 37.96 72.2869 37.2586 72.2869C36.4138 72.2869 35.6327 72.1275 34.9154 71.8087C34.214 71.474 33.6003 71.0276 33.0743 70.4697C32.5483 69.8959 32.1338 69.2343 31.8309 68.4851C31.544 67.72 31.4005 66.907 31.4005 66.0463C31.4005 65.1855 31.544 64.3805 31.8309 63.6313C32.1338 62.8662 32.5483 62.2046 33.0743 61.6467C33.6003 61.0729 34.214 60.6265 34.9154 60.3077C35.6327 59.973 36.4138 59.8056 37.2586 59.8056C38.0238 59.8056 38.7251 59.9252 39.3628 60.1643C40.0004 60.4034 40.5264 60.7859 40.9409 61.312L41.2756 60.1404H44.121ZM40.8213 66.0941C40.8213 65.4724 40.7336 64.9544 40.5583 64.5399C40.3989 64.1095 40.1757 63.7668 39.8888 63.5117C39.6178 63.2408 39.291 63.0495 38.9085 62.9379C38.5418 62.8104 38.1433 62.7466 37.7129 62.7466C37.2825 62.7466 36.8761 62.8343 36.4935 63.0096C36.1269 63.185 35.8001 63.4241 35.5132 63.7269C35.2262 64.0139 35.0031 64.3646 34.8437 64.779C34.6843 65.1775 34.6046 65.5999 34.6046 66.0463C34.6046 66.5085 34.6843 66.9389 34.8437 67.3374C35.0031 67.7359 35.2262 68.0866 35.5132 68.3895C35.8001 68.6764 36.1269 68.9076 36.4935 69.0829C36.8761 69.2583 37.2825 69.3459 37.7129 69.3459C38.5737 69.3459 39.299 69.0829 39.8888 68.5569C40.4945 68.0149 40.8054 67.194 40.8213 66.0941ZM52.0927 62.7466C51.6942 62.7466 51.3196 62.8423 50.9689 63.0335C50.6182 63.2089 50.3074 63.456 50.0364 63.7748C49.7814 64.0776 49.5741 64.4363 49.4147 64.8507C49.2713 65.2652 49.1995 65.7115 49.1995 66.1897C49.1995 66.6679 49.2713 67.1063 49.4147 67.5048C49.5741 67.8874 49.7814 68.2221 50.0364 68.5091C50.3074 68.78 50.6182 68.9952 50.9689 69.1546C51.3196 69.314 51.6942 69.3937 52.0927 69.3937C52.5869 69.3937 53.0651 69.2822 53.5273 69.059C54.0056 68.8199 54.412 68.4931 54.7468 68.0787L56.7792 70.0872C56.2213 70.7567 55.5358 71.2907 54.7229 71.6892C53.9099 72.0877 53.0332 72.2869 52.0927 72.2869C51.2319 72.2869 50.4269 72.1275 49.6777 71.8087C48.9285 71.474 48.275 71.0276 47.7171 70.4697C47.1592 69.8959 46.7128 69.2343 46.3781 68.4851C46.0593 67.72 45.8999 66.907 45.8999 66.0463C45.8999 65.1855 46.0593 64.3805 46.3781 63.6313C46.7128 62.8662 47.1592 62.2046 47.7171 61.6467C48.275 61.0729 48.9285 60.6265 49.6777 60.3077C50.4269 59.973 51.2319 59.8056 52.0927 59.8056C53.0651 59.8056 53.9657 60.0128 54.7946 60.4273C55.6235 60.8417 56.3249 61.4076 56.8987 62.1249L54.6033 63.8943C54.141 63.4639 53.7186 63.169 53.3361 63.0096C52.9694 62.8343 52.555 62.7466 52.0927 62.7466ZM62.9397 67.7439C62.9397 68.3018 63.1071 68.7322 63.4418 69.0351C63.7925 69.338 64.2468 69.4894 64.8047 69.4894C65.2511 69.4894 65.6974 69.4017 66.1437 69.2264V72C65.7452 72.1275 65.3228 72.2311 64.8765 72.3108C64.4301 72.4065 63.9838 72.4543 63.5375 72.4543C63.0274 72.4543 62.5412 72.3905 62.0789 72.263C61.6166 72.1355 61.2022 71.9203 60.8356 71.6174C60.4689 71.2986 60.174 70.8842 59.9509 70.3741C59.7437 69.848 59.64 69.2025 59.64 68.4373V63.0814H57.9424V60.8577L59.64 60.1404V57.4863H62.9397V60.1404H66.1437V63.0814H62.9397V67.7439Z" fill="#407BFF"/>
<path d="M32.3227 20.3562C29.7204 20.3562 27.6105 22.2218 27.6105 24.5228C27.6105 26.8239 29.7204 28.6895 32.3227 28.6895C34.9254 28.6895 37.0348 26.8239 37.0348 24.5228C37.0321 22.2226 34.924 20.359 32.3227 20.3562ZM32.3227 27.0228C30.7613 27.0228 29.4954 25.9035 29.4954 24.5228C29.4954 23.1422 30.7613 22.0228 32.3227 22.0228C33.8845 22.0228 35.15 23.1422 35.15 24.5228C35.15 25.9035 33.8845 27.0228 32.3227 27.0228Z" fill="url(#paint0_linear)"/>
<path d="M49.397 25C50.8134 23.9412 52.1594 22.8109 53.4286 21.615C57.4592 17.76 58.8627 14.6073 57.4868 12.5C55.5076 9.47266 48.8596 10.0342 41.2014 12.441C39.7266 5.37354 36.9513 0 32.9984 0C29.046 0 26.2707 5.37354 24.7996 12.4418C17.1414 10.035 10.4906 9.47347 8.51414 12.5C7.13823 14.6073 8.54175 17.76 12.5724 21.615C13.8406 22.8109 15.1852 23.9408 16.6002 25C15.1838 26.0588 13.8378 27.1891 12.5687 28.385C8.54083 32.24 7.13731 35.3927 8.51322 37.5C9.45565 38.9449 11.4643 39.5723 14.1388 39.5723C17.7921 39.4141 21.3925 38.7337 24.7996 37.5574C26.2707 44.6265 29.046 50 32.9984 50C36.9513 50 39.7266 44.6265 41.1977 37.5582C44.6048 38.7337 48.2047 39.4141 51.8576 39.5723C54.5312 39.5723 56.5393 38.9441 57.4831 37.5C58.8591 35.3927 57.4555 32.24 53.4249 28.385C52.1567 27.1891 50.8121 26.0592 49.397 25V25ZM55.8546 13.3333C56.7367 14.6851 55.3125 17.3584 52.0453 20.4834C50.7513 21.7008 49.3763 22.8483 47.9268 23.9201C46.1869 22.6827 44.2919 21.4559 42.258 20.2673C42.1102 18.1576 41.8622 16.0791 41.5189 14.1007C49.114 11.6899 54.6517 11.4998 55.8514 13.3333H55.8546ZM36.7681 30.7735C35.4902 31.4246 34.234 32.0304 32.9984 32.5916C31.7647 32.0317 30.508 31.4254 29.2287 30.7735C27.9669 30.129 26.7493 29.4617 25.563 28.785C25.494 27.5635 25.459 26.3017 25.459 25C25.459 23.6983 25.494 22.4365 25.563 21.215C26.7493 20.5383 27.9669 19.871 29.2287 19.2265C30.5057 18.575 31.7624 17.9692 32.9984 17.4093C34.233 17.9708 35.4921 18.5758 36.7681 19.2265C38.0304 19.871 39.248 20.5383 40.4343 21.215C40.5033 22.4365 40.5378 23.6983 40.5378 25C40.5378 26.3017 40.5033 27.5635 40.4343 28.785C39.248 29.4617 38.0304 30.129 36.7681 30.7735ZM40.2866 30.8476C40.149 32.415 39.9585 33.9026 39.721 35.2999C38.2338 34.7807 36.6807 34.1825 35.0756 33.5034C35.9614 33.0868 36.8418 32.6591 37.7078 32.2176C38.5738 31.7757 39.444 31.3118 40.2866 30.8476V30.8476ZM30.9189 33.5002C29.3166 34.1785 27.7608 34.7774 26.2735 35.2966C26.0388 33.8993 25.8483 32.4117 25.7079 30.8443C26.5505 31.3082 27.4092 31.7647 28.2835 32.2144C29.1528 32.6591 30.0326 33.0835 30.9189 33.5002ZM23.628 27.644C22.1936 26.7757 20.8393 25.8944 19.5642 25C20.8361 24.1073 22.1904 23.2247 23.628 22.3527C23.5939 23.2357 23.5741 24.1199 23.5741 25C23.5741 25.8801 23.5939 26.7643 23.628 27.6473V27.644ZM25.7107 19.1492C25.8483 17.5826 26.0388 16.0958 26.2762 14.6993C27.7617 15.2177 29.3129 15.8167 30.9157 16.4941C30.0312 16.9096 29.1555 17.3381 28.2895 17.7791C27.411 18.2292 26.5514 18.6869 25.7107 19.1524V19.1492ZM35.0807 16.4998C36.6825 15.8215 38.2374 15.2234 39.7238 14.7042C39.9585 16.1015 40.149 17.5891 40.2893 19.1565C39.4449 18.6894 38.5853 18.2312 37.7106 17.7824C36.8454 17.3409 35.9665 16.9165 35.0807 16.4998ZM42.3693 22.3568C43.8037 23.2243 45.1579 24.1056 46.4331 25C45.1612 25.8923 43.8069 26.7749 42.3693 27.6473C42.4029 26.7643 42.4227 25.8801 42.4227 25C42.4227 24.1199 42.4029 23.2357 42.3693 22.3527V22.3568ZM32.9984 1.66667C35.3973 1.66667 37.9784 6.00586 39.4118 13.029C37.3028 13.7549 35.1419 14.6049 33.0035 15.5477C30.8605 14.6049 28.6981 13.7549 26.5947 13.029C28.0189 6.00667 30.6 1.66667 32.9984 1.66667V1.66667ZM13.9552 20.4834C10.6875 17.3584 9.26375 14.6851 10.1459 13.3333C10.6783 12.5183 12.0634 12.1025 14.1038 12.1025C17.6623 12.2681 21.167 12.9435 24.4811 14.1024C24.1378 16.0775 23.8903 18.1551 23.7421 20.2641C21.7081 21.4526 19.8132 22.6807 18.0733 23.9168C16.6242 22.8463 15.2487 21.6996 13.9552 20.4834ZM10.1459 36.6667C9.26375 35.3149 10.6875 32.6416 13.9552 29.5166C15.2487 28.2992 16.6237 27.1517 18.0733 26.0799C19.8132 27.3173 21.7081 28.5441 23.7421 29.7327C23.8903 31.8424 24.1378 33.9209 24.4811 35.8993C16.8833 38.3101 11.3456 38.5002 10.1459 36.6667V36.6667ZM32.9984 48.3333C30.6 48.3333 28.0198 43.9941 26.5901 36.9718C28.6981 36.2459 30.8605 35.3959 33.0035 34.4535C35.1465 35.3959 37.3084 36.2459 39.4164 36.9718C37.9775 43.9941 35.3973 48.3333 32.9984 48.3333V48.3333ZM55.8514 36.6667C54.6526 38.5002 49.1113 38.3101 41.5162 35.8968C41.8594 33.9209 42.107 31.8424 42.2552 29.7298C44.2891 28.5417 46.1841 27.3132 47.924 26.0775C49.3736 27.1488 50.7486 28.2967 52.0421 29.5142C55.3098 32.6416 56.7335 35.3149 55.8514 36.6667V36.6667Z" fill="url(#paint1_linear)"/>
<path d="M411.11 68.7003C411.875 68.7003 412.624 68.525 413.358 68.1743C414.091 67.8236 414.832 67.2338 415.581 66.4049L417.924 68.6286C416.984 69.8401 415.908 70.7567 414.697 71.3783C413.501 72 412.266 72.3108 410.99 72.3108C409.843 72.3108 408.767 72.0797 407.762 71.6174C406.758 71.1392 405.881 70.5016 405.132 69.7046C404.399 68.9076 403.817 67.983 403.387 66.931C402.972 65.863 402.765 64.7312 402.765 63.5357C402.765 62.3401 402.98 61.2163 403.411 60.1643C403.857 59.1122 404.455 58.1877 405.204 57.3906C405.953 56.5936 406.838 55.964 407.858 55.5017C408.878 55.0394 409.962 54.8083 411.11 54.8083C412.178 54.8083 413.19 55.0076 414.147 55.4061C415.119 55.8046 416.067 56.4661 416.992 57.3906L414.888 59.9491C414.218 59.3274 413.581 58.913 412.975 58.7057C412.385 58.4826 411.763 58.371 411.11 58.371C410.456 58.371 409.835 58.5065 409.245 58.7775C408.671 59.0484 408.169 59.4151 407.739 59.8773C407.308 60.3396 406.965 60.8896 406.71 61.5272C406.471 62.1488 406.352 62.8183 406.352 63.5357C406.352 64.253 406.471 64.9225 406.71 65.5441C406.965 66.1658 407.308 66.7158 407.739 67.194C408.169 67.6562 408.671 68.0229 409.245 68.2939C409.835 68.5648 410.456 68.7003 411.11 68.7003ZM430.533 63.2726C431.202 63.6712 431.712 64.1812 432.063 64.8029C432.414 65.4246 432.589 66.1419 432.589 66.9549C432.589 67.72 432.406 68.4373 432.039 69.1068C431.673 69.7604 431.154 70.3422 430.485 70.8523C429.879 71.3146 429.186 71.6732 428.405 71.9283C427.64 72.1674 426.827 72.2949 425.966 72.3108C425.105 72.3108 424.284 72.1913 423.503 71.9522C422.722 71.7131 422.029 71.3544 421.423 70.8762C420.514 70.1908 419.893 69.3619 419.558 68.3895L422.905 66.8353C422.905 66.9947 422.961 67.194 423.073 67.4331C423.184 67.6722 423.36 67.9033 423.599 68.1265C423.838 68.3497 424.149 68.5409 424.531 68.7003C424.914 68.8597 425.384 68.9394 425.942 68.9394C426.388 68.9394 426.779 68.8837 427.114 68.7721C427.464 68.6605 427.751 68.525 427.974 68.3656C428.213 68.1903 428.389 67.999 428.5 67.7917C428.628 67.5686 428.692 67.3454 428.692 67.1222C428.692 66.8672 428.604 66.6281 428.429 66.4049C428.269 66.1818 428.014 66.0064 427.664 65.8789C427.026 65.6557 426.348 65.4724 425.631 65.329C424.93 65.1695 424.244 64.9783 423.575 64.7551C422.905 64.516 422.284 64.2052 421.71 63.8226C421.136 63.44 420.682 62.906 420.347 62.2206C420.044 61.6148 419.893 60.9693 419.893 60.2838C419.893 59.5187 420.068 58.7775 420.419 58.0601C420.785 57.3428 421.279 56.7371 421.901 56.2429C422.491 55.7807 423.152 55.43 423.886 55.1909C424.619 54.9358 425.392 54.8083 426.205 54.8083C427.018 54.8083 427.791 54.9279 428.524 55.167C429.273 55.4061 429.943 55.7568 430.533 56.219C431.107 56.6494 431.561 57.1515 431.896 57.7254L429.17 59.5904C428.835 59.1281 428.413 58.7615 427.903 58.4905C427.408 58.2036 426.851 58.0601 426.229 58.0601C425.368 58.0601 424.699 58.2514 424.22 58.634C423.758 59.0166 423.527 59.5187 423.527 60.1404C423.527 60.4273 423.655 60.6823 423.91 60.9055C424.181 61.1287 424.523 61.3279 424.938 61.5033C425.368 61.6786 425.846 61.838 426.372 61.9815C426.898 62.109 427.416 62.2445 427.927 62.388C428.453 62.5155 428.947 62.651 429.409 62.7944C429.871 62.9379 430.246 63.0973 430.533 63.2726ZM445.267 63.2726C445.936 63.6712 446.446 64.1812 446.797 64.8029C447.148 65.4246 447.323 66.1419 447.323 66.9549C447.323 67.72 447.14 68.4373 446.773 69.1068C446.406 69.7604 445.888 70.3422 445.219 70.8523C444.613 71.3146 443.92 71.6732 443.139 71.9283C442.374 72.1674 441.561 72.2949 440.7 72.3108C439.839 72.3108 439.018 72.1913 438.237 71.9522C437.456 71.7131 436.763 71.3544 436.157 70.8762C435.248 70.1908 434.627 69.3619 434.292 68.3895L437.639 66.8353C437.639 66.9947 437.695 67.194 437.807 67.4331C437.918 67.6722 438.094 67.9033 438.333 68.1265C438.572 68.3497 438.883 68.5409 439.265 68.7003C439.648 68.8597 440.118 68.9394 440.676 68.9394C441.122 68.9394 441.513 68.8837 441.848 68.7721C442.198 68.6605 442.485 68.525 442.708 68.3656C442.947 68.1903 443.123 67.999 443.234 67.7917C443.362 67.5686 443.426 67.3454 443.426 67.1222C443.426 66.8672 443.338 66.6281 443.163 66.4049C443.003 66.1818 442.748 66.0064 442.397 65.8789C441.76 65.6557 441.082 65.4724 440.365 65.329C439.664 65.1695 438.978 64.9783 438.309 64.7551C437.639 64.516 437.018 64.2052 436.444 63.8226C435.87 63.44 435.416 62.906 435.081 62.2206C434.778 61.6148 434.627 60.9693 434.627 60.2838C434.627 59.5187 434.802 58.7775 435.153 58.0601C435.519 57.3428 436.013 56.7371 436.635 56.2429C437.225 55.7807 437.886 55.43 438.62 55.1909C439.353 54.9358 440.126 54.8083 440.939 54.8083C441.752 54.8083 442.525 54.9279 443.258 55.167C444.007 55.4061 444.677 55.7568 445.267 56.219C445.841 56.6494 446.295 57.1515 446.63 57.7254L443.904 59.5904C443.569 59.1281 443.147 58.7615 442.637 58.4905C442.142 58.2036 441.584 58.0601 440.963 58.0601C440.102 58.0601 439.433 58.2514 438.954 58.634C438.492 59.0166 438.261 59.5187 438.261 60.1404C438.261 60.4273 438.388 60.6823 438.643 60.9055C438.914 61.1287 439.257 61.3279 439.672 61.5033C440.102 61.6786 440.58 61.838 441.106 61.9815C441.632 62.109 442.15 62.2445 442.66 62.388C443.187 62.5155 443.681 62.651 444.143 62.7944C444.605 62.9379 444.98 63.0973 445.267 63.2726Z" fill="#407BFF"/>
<path d="M403.125 0L407.109 45L425 50L442.884 45.0031L446.875 0H403.125Z" fill="#2196F3"/>
<path d="M438.356 14.7156L437.853 20.3687L436.334 37.3156L425 40.45L424.991 40.4531L413.663 37.3156L412.872 28.4531H418.422L418.834 33.05L424.994 34.7125L424.997 34.7094L431.166 33.0469L432.006 25.3875L412.606 25.4406L412.056 20.2031L432.472 19.9625L432.884 14.3562L411.509 14.4156L411.15 9.2H425H438.85L438.356 14.7156Z" fill="#FAFAFA"/>
<path d="M509.72 55.0474H513.331V72H509.888L501.734 60.9294V72H498.124V55.0474H501.519L509.72 66.1897V55.0474ZM521.376 59.8056C522.221 59.8056 523.018 59.973 523.767 60.3077C524.516 60.6265 525.17 61.0729 525.728 61.6467C526.286 62.2046 526.724 62.8662 527.043 63.6313C527.378 64.3805 527.545 65.1855 527.545 66.0463C527.545 66.907 527.378 67.72 527.043 68.4851C526.724 69.2343 526.286 69.8959 525.728 70.4697C525.17 71.0276 524.516 71.474 523.767 71.8087C523.018 72.1275 522.221 72.2869 521.376 72.2869C520.515 72.2869 519.71 72.1275 518.961 71.8087C518.212 71.474 517.558 71.0276 517 70.4697C516.443 69.8959 515.996 69.2343 515.661 68.4851C515.343 67.72 515.183 66.907 515.183 66.0463C515.183 65.1855 515.343 64.3805 515.661 63.6313C515.996 62.8662 516.443 62.2046 517 61.6467C517.558 61.0729 518.212 60.6265 518.961 60.3077C519.71 59.973 520.515 59.8056 521.376 59.8056ZM521.376 69.3937C521.775 69.3937 522.141 69.314 522.476 69.1546C522.827 68.9952 523.13 68.78 523.385 68.5091C523.656 68.2221 523.863 67.8874 524.006 67.5048C524.166 67.1063 524.245 66.6679 524.245 66.1897C524.245 65.7115 524.166 65.2652 524.006 64.8507C523.863 64.4363 523.656 64.0776 523.385 63.7748C523.13 63.456 522.827 63.2089 522.476 63.0335C522.141 62.8423 521.775 62.7466 521.376 62.7466C520.978 62.7466 520.603 62.8423 520.252 63.0335C519.902 63.2089 519.591 63.456 519.32 63.7748C519.065 64.0776 518.857 64.4363 518.698 64.8507C518.555 65.2652 518.483 65.7115 518.483 66.1897C518.483 66.6679 518.555 67.1063 518.698 67.5048C518.857 67.8874 519.065 68.2221 519.32 68.5091C519.591 68.78 519.902 68.9952 520.252 69.1546C520.603 69.314 520.978 69.3937 521.376 69.3937ZM541.227 54.5453V72H538.406L537.927 70.9718C537.561 71.3544 537.051 71.6732 536.397 71.9283C535.76 72.1674 535.09 72.2869 534.389 72.2869C533.544 72.2869 532.763 72.1275 532.045 71.8087C531.328 71.474 530.706 71.0276 530.18 70.4697C529.67 69.8959 529.264 69.2343 528.961 68.4851C528.674 67.72 528.531 66.907 528.531 66.0463C528.531 65.1855 528.674 64.3805 528.961 63.6313C529.264 62.8662 529.67 62.2046 530.18 61.6467C530.706 61.0729 531.328 60.6265 532.045 60.3077C532.763 59.973 533.544 59.8056 534.389 59.8056C535.138 59.8056 535.799 59.8933 536.373 60.0686C536.963 60.244 537.481 60.5389 537.927 60.9533V54.5453H541.227ZM537.927 66.0941C537.927 65.4724 537.848 64.9544 537.688 64.5399C537.529 64.1095 537.306 63.7668 537.019 63.5117C536.732 63.2408 536.397 63.0495 536.015 62.9379C535.648 62.8104 535.249 62.7466 534.819 62.7466C534.389 62.7466 533.982 62.8343 533.6 63.0096C533.233 63.185 532.906 63.4241 532.619 63.7269C532.348 64.0139 532.133 64.3646 531.974 64.779C531.814 65.1775 531.735 65.5999 531.735 66.0463C531.735 66.5085 531.814 66.9389 531.974 67.3374C532.133 67.7359 532.348 68.0866 532.619 68.3895C532.906 68.6764 533.233 68.9076 533.6 69.0829C533.982 69.2583 534.389 69.3459 534.819 69.3459C535.68 69.3459 536.405 69.0829 536.995 68.5569C537.601 68.0149 537.911 67.194 537.927 66.0941ZM549.233 59.8056C550.126 59.8056 550.939 59.9889 551.672 60.3556C552.406 60.7062 553.035 61.1765 553.561 61.7663C554.087 62.3401 554.494 63.0096 554.781 63.7748C555.068 64.524 555.211 65.2971 555.211 66.0941C555.211 66.5723 555.147 67.0824 555.02 67.6244H546.555C546.874 68.1663 547.328 68.6286 547.918 69.0112C548.508 69.3778 549.146 69.5611 549.831 69.5611C550.517 69.5611 551.114 69.5053 551.624 69.3937C552.15 69.2822 552.645 69.1387 553.107 68.9634L554.207 70.9958C553.617 71.4102 552.94 71.729 552.174 71.9522C551.425 72.1753 550.62 72.2869 549.759 72.2869C548.819 72.2869 547.942 72.1275 547.129 71.8087C546.316 71.474 545.607 71.0276 545.001 70.4697C544.395 69.9118 543.917 69.2503 543.567 68.4851C543.216 67.72 543.041 66.907 543.041 66.0463C543.041 65.2014 543.2 64.4044 543.519 63.6552C543.838 62.8901 544.276 62.2285 544.834 61.6706C545.408 61.0968 546.069 60.6425 546.818 60.3077C547.568 59.973 548.373 59.8056 549.233 59.8056ZM551.935 65.0659C551.744 64.3805 551.401 63.8226 550.907 63.3922C550.413 62.9618 549.855 62.7466 549.233 62.7466C548.596 62.7466 548.014 62.9618 547.488 63.3922C546.978 63.8226 546.627 64.3805 546.436 65.0659H551.935Z" fill="#407BFF"/>
<path d="M552 25C552 38.8071 540.807 50 527 50C514.261 50 503.748 40.4725 502.198 28.1541C502.067 27.1214 502 26.0684 502 25C502 23.0429 502.225 21.1378 502.65 19.3102C505.225 8.24492 515.15 0 527 0C538.82 0 548.725 8.2041 551.33 19.2286C551.671 20.6704 551.887 22.1603 551.965 23.6857C551.989 24.1214 552 24.5592 552 25Z" fill="#D6EAD5"/>
<path d="M525.75 27.0077V20.5078L520.12 17.2579L514.491 20.5078V27.0077L520.12 30.2576L525.75 27.0077Z" fill="#3B8739"/>
<path d="M547.918 26.0214L551.587 28.1397L547.918 30.2581L542.29 27.0081V20.5081L547.918 17.2581L551.33 19.2285C551.671 20.6703 551.887 22.1601 551.965 23.6856L549.88 24.8897V22.6255L547.918 21.4938L545.957 22.6255V24.8897L547.918 26.0214Z" fill="#333333"/>
<path d="M549.011 24.3887V23.127L547.918 22.4961L546.825 23.127V24.3887L547.918 25.0196L549.011 24.3887Z" fill="#66A060"/>
<path d="M511.833 20.5082V29.0796L508.079 26.9378V22.5439L506.204 21.4612L504.33 22.5438V26.9377L502.198 28.1541C502.067 27.1214 502 26.0683 502 25C502 23.0429 502.225 21.1378 502.65 19.3102L506.204 17.2581L511.833 20.5082Z" fill="#333333"/>
<path d="M525.749 27.0069L520.12 17.2576L514.491 20.5075L520.12 30.2568L525.749 27.0069Z" fill="#6DA75D"/>
<path d="M514.491 27.0077L516.424 23.8558L514.491 20.5078V27.0077Z" fill="#55A344"/>
<path d="M523.873 23.7575L525.75 20.5078L520.12 17.2579L523.873 23.7575Z" fill="#639D57"/>
<path d="M535.843 9.72453V18.348L533.956 17.2581L528.327 20.5081V27.0081L533.956 30.2581L539.585 27.0081V11.7276L535.843 9.72453ZM535.833 24.8408L533.956 25.9245L532.079 24.8408V22.6745L533.956 21.5908L535.833 22.6745V24.8408Z" fill="#333333"/>
<path d="M529.554 35.031C529.554 35.031 529.443 34.0809 528.427 34.0809C527.41 34.0809 526.714 34.2134 526.714 34.7768C526.714 35.3403 528.692 35.3403 529.443 35.5612C530.195 35.7821 530.857 36.3566 530.526 37.373C530.194 38.3894 529.178 38.4999 527.609 38.4999C526.041 38.4999 525.687 37.1962 525.687 36.6881H526.571C526.571 36.6881 526.46 37.4835 527.499 37.616C528.537 37.7485 529.53 37.8231 529.664 37.0195C529.841 35.9589 526.305 36.4892 525.996 35.4508C525.735 34.5733 525.886 33.4181 527.653 33.2412C529.421 33.0644 530.393 33.8448 530.393 35.0089L529.554 35.031Z" fill="#66A060"/>
<path d="M521.016 39.1729L522.97 40.301C523.952 40.8678 525.179 40.1593 525.179 39.0257V37.0489V33.4109H524.382V38.8042C524.382 39.4232 523.712 39.8103 523.176 39.5006L521.812 38.7133V32.9574L526.797 30.0798L531.782 32.9574V38.7133L526.797 41.5909L525.361 40.7619L524.423 41.14L526.797 42.5104L532.578 39.1727V32.4978L526.797 29.1602L521.016 32.4979V39.1729H521.016Z" fill="#66A060"/>
<defs>
<linearGradient id="paint0_linear" x1="32.3229" y1="49.1512" x2="32.3229" y2="-3.20716" gradientUnits="userSpaceOnUse">
<stop stop-color="#006DF0"/>
<stop offset="1" stop-color="#00E7F0"/>
</linearGradient>
<linearGradient id="paint1_linear" x1="32.9986" y1="49.6283" x2="32.9986" y2="-2.73" gradientUnits="userSpaceOnUse">
<stop stop-color="#006DF0"/>
<stop offset="1" stop-color="#00E7F0"/>
</linearGradient>
</defs>
</svg>
